<svg xmlns="http://www.w3.org/2000/svg" xmlns:xlink="http://www.w3.org/1999/xlink" width="130" zoomAndPan="magnify" viewBox="0 0 97.5 66" height="88" preserveAspectRatio="xMidYMid meet" version="1.0"><defs><g/></defs><g fill="#000000" fill-opacity="1"><g transform="translate(13.817153, 43.633478)"><g><path d="M 13.203125 -3.4375 L 12.734375 -3.5625 L 11.421875 -4.390625 L 9.546875 -5.21875 L 9.171875 -5.5 L 8.6875 -5.734375 L 8.28125 -6.015625 L 7.765625 -6.296875 L 7.09375 -6.59375 L 4.234375 -8.1875 L 3.75 -8.375 L 3.3125 -8.65625 L 2.828125 -8.8125 L 2.421875 -9.046875 L 1.96875 -9.296875 L 1.46875 -9.703125 L 1.234375 -10.375 L 1.3125 -11.65625 L 1.265625 -12.0625 L 1.5 -12.921875 L 1.9375 -13.40625 L 2.359375 -13.6875 L 2.859375 -13.875 L 3.3125 -14.15625 L 3.71875 -14.328125 L 4.578125 -14.828125 L 5.125 -15.015625 L 5.609375 -15.28125 L 6.015625 -15.5625 L 6.390625 -15.65625 L 7.28125 -16.296875 L 7.765625 -16.484375 L 11.8125 -18.65625 L 12.734375 -19.03125 L 13.203125 -19.3125 L 13.5625 -19.34375 L 13.84375 -18.875 L 13.8125 -18.484375 L 13.875 -16.734375 L 13.8125 -15.375 L 13.625 -14.734375 L 13.203125 -14.265625 L 12.734375 -14.09375 L 11.046875 -13.078125 L 10.5625 -12.890625 L 9.734375 -12.484375 L 9.296875 -12.125 L 8.8125 -11.96875 L 8.4375 -11.75 L 8.140625 -11.265625 L 8.40625 -10.953125 L 8.90625 -10.765625 L 9.296875 -10.4375 L 10.59375 -9.828125 L 11.453125 -9.296875 L 11.875 -9.171875 L 12.734375 -8.5625 L 13.171875 -8.375 L 13.625 -7.828125 L 13.875 -7.28125 L 13.875 -6.71875 L 13.8125 -6.234375 L 13.8125 -4.234375 L 13.875 -3.8125 L 13.625 -3.46875 Z M 13.203125 -3.4375 "/></g></g></g><g fill="#000000" fill-opacity="1"><g transform="translate(29.572461, 43.633478)"><g><path d="M 4.203125 0 L 3.25 -0.03125 L 2.640625 0.0625 L 1.71875 0.09375 L 1.078125 0 L 0.28125 -0.21875 L 0.25 -0.890625 L 5.828125 -12.21875 L 6.046875 -12.828125 L 6.5625 -13.96875 L 6.90625 -14.515625 L 7.15625 -15.125 L 7.515625 -15.625 L 7.734375 -16.234375 L 10.28125 -21.453125 L 10.796875 -22.03125 L 11.578125 -22.21875 L 12.796875 -22.25 L 14.03125 -22.15625 L 14.703125 -22.28125 L 15.3125 -22.21875 L 15.75 -21.921875 L 15.75 -21.390625 L 14.921875 -19.640625 L 14.734375 -19.09375 L 13.265625 -16.296875 L 13.046875 -15.71875 L 11.65625 -12.796875 L 11.421875 -12.1875 L 11.109375 -11.71875 L 8.625 -6.5 L 8.015625 -5.46875 L 7.578125 -4.234375 L 6.65625 -2.640625 L 6.390625 -1.9375 L 6.078125 -1.40625 L 5.859375 -0.859375 L 5.25 -0.3125 Z M 4.203125 0 "/></g></g></g><g fill="#000000" fill-opacity="1"><g transform="translate(45.900709, 43.633478)"><g><path d="M 10.953125 0.28125 L 10.34375 0.1875 L 9.640625 -0.0625 L 9 -0.609375 L 8.71875 -1.078125 L 7.453125 -4.109375 L 7.28125 -4.75 L 6.9375 -5.3125 L 6.390625 -6.390625 L 6.171875 -7.0625 L 5.375 -8.71875 L 5.1875 -9.359375 L 2.328125 -15.78125 L 2.09375 -16.453125 L 1.75 -16.9375 L 1.5 -17.5625 L 1.34375 -18.171875 L 1.015625 -18.65625 L 0 -21.359375 L 0.25 -22 L 0.765625 -22.21875 L 1.96875 -22.21875 L 2.609375 -22.3125 L 4.421875 -22.25 L 5.15625 -21.921875 L 5.703125 -21.390625 L 6.59375 -18.96875 L 7.421875 -17.28125 L 9 -13.140625 L 9.546875 -12.0625 L 9.671875 -11.453125 L 10.46875 -9.734375 L 10.828125 -9.671875 L 11.140625 -10.25 L 11.78125 -12.03125 L 12.09375 -12.609375 L 12.21875 -13.171875 L 12.515625 -13.71875 L 12.703125 -14.390625 L 15.65625 -21.390625 L 16.203125 -21.921875 L 16.90625 -22.34375 L 18.109375 -22.21875 L 18.75 -22.25 L 19.34375 -22.3125 L 19.921875 -22.21875 L 20.59375 -22.15625 L 21.171875 -22.03125 L 21.328125 -21.359375 L 21.109375 -20.5 L 20.5 -19.390625 L 20.34375 -18.78125 L 19.796875 -17.625 L 19.484375 -17.0625 L 16.703125 -10.5 L 16.140625 -9.484375 L 15.921875 -8.78125 L 14.671875 -5.890625 L 14.328125 -5.3125 L 14.125 -4.78125 L 13.8125 -4.109375 L 13.625 -3.46875 L 13.015625 -2.453125 L 12.828125 -1.78125 L 12.40625 -0.890625 L 11.71875 0.03125 Z M 10.953125 0.28125 "/></g></g></g><g fill="#000000" fill-opacity="1"><g transform="translate(67.353401, 43.633478)"><g><path d="M 1.875 -3.8125 L 1.8125 -4.296875 L 1.875 -5.734375 L 1.84375 -6.296875 L 1.90625 -6.78125 L 1.8125 -7.15625 L 2.09375 -7.796875 L 2.515625 -8.34375 L 3.4375 -8.78125 L 3.78125 -9.078125 L 4.234375 -9.234375 L 4.703125 -9.484375 L 5.0625 -9.734375 L 5.53125 -10.03125 L 5.984375 -10.21875 L 7.359375 -11.015625 L 7.484375 -11.265625 L 7.359375 -11.6875 L 6.8125 -11.96875 L 6.421875 -12.09375 L 5.984375 -12.40625 L 4.265625 -13.265625 L 3.75 -13.65625 L 3.34375 -13.8125 L 2.671875 -14.234375 L 2.03125 -14.859375 L 1.875 -15.40625 L 1.8125 -17.34375 L 1.875 -17.890625 L 1.8125 -18.84375 L 2.125 -19.15625 L 2.546875 -19.1875 L 3.4375 -18.75 L 3.890625 -18.59375 L 4.328125 -18.390625 L 5.25 -17.796875 L 5.640625 -17.625 L 6.53125 -17.0625 L 7.734375 -16.609375 L 8.375 -16.140625 L 8.78125 -15.953125 L 10.15625 -15.21875 L 10.59375 -14.921875 L 11.546875 -14.578125 L 12 -14.234375 L 12.40625 -14.09375 L 12.859375 -13.78125 L 13.375 -13.65625 L 13.78125 -13.375 L 14.203125 -12.828125 L 14.484375 -12.1875 L 14.421875 -10.34375 L 14.15625 -9.734375 L 13.78125 -9.359375 L 13.265625 -9 L 11.484375 -8.078125 L 11.109375 -7.796875 L 10.46875 -7.578125 L 9.96875 -7.21875 L 9.296875 -6.875 L 8.78125 -6.71875 L 5.1875 -4.75 L 4.359375 -4.390625 L 3.6875 -3.921875 L 2.515625 -3.4375 L 2.171875 -3.4375 Z M 1.875 -3.8125 "/></g></g></g><g fill="#000000" fill-opacity="1"><g transform="translate(13.817153, 43.633478)"><g><path d="M 13.203125 -3.4375 L 12.734375 -3.5625 L 11.421875 -4.390625 L 9.546875 -5.21875 L 9.171875 -5.5 L 8.6875 -5.734375 L 8.28125 -6.015625 L 7.765625 -6.296875 L 7.09375 -6.59375 L 4.234375 -8.1875 L 3.75 -8.375 L 3.3125 -8.65625 L 2.828125 -8.8125 L 2.421875 -9.046875 L 1.96875 -9.296875 L 1.46875 -9.703125 L 1.234375 -10.375 L 1.3125 -11.65625 L 1.265625 -12.0625 L 1.5 -12.921875 L 1.9375 -13.40625 L 2.359375 -13.6875 L 2.859375 -13.875 L 3.3125 -14.15625 L 3.71875 -14.328125 L 4.578125 -14.828125 L 5.125 -15.015625 L 5.609375 -15.28125 L 6.015625 -15.5625 L 6.390625 -15.65625 L 7.28125 -16.296875 L 7.765625 -16.484375 L 11.8125 -18.65625 L 12.734375 -19.03125 L 13.203125 -19.3125 L 13.5625 -19.34375 L 13.84375 -18.875 L 13.8125 -18.484375 L 13.875 -16.734375 L 13.8125 -15.375 L 13.625 -14.734375 L 13.203125 -14.265625 L 12.734375 -14.09375 L 11.046875 -13.078125 L 10.5625 -12.890625 L 9.734375 -12.484375 L 9.296875 -12.125 L 8.8125 -11.96875 L 8.4375 -11.75 L 8.140625 -11.265625 L 8.40625 -10.953125 L 8.90625 -10.765625 L 9.296875 -10.4375 L 10.59375 -9.828125 L 11.453125 -9.296875 L 11.875 -9.171875 L 12.734375 -8.5625 L 13.171875 -8.375 L 13.625 -7.828125 L 13.875 -7.28125 L 13.875 -6.71875 L 13.8125 -6.234375 L 13.8125 -4.234375 L 13.875 -3.8125 L 13.625 -3.46875 Z M 13.203125 -3.4375 "/></g></g></g><g fill="#000000" fill-opacity="1"><g transform="translate(29.572461, 43.633478)"><g><path d="M 4.203125 0 L 3.25 -0.03125 L 2.640625 0.0625 L 1.71875 0.09375 L 1.078125 0 L 0.28125 -0.21875 L 0.25 -0.890625 L 5.828125 -12.21875 L 6.046875 -12.828125 L 6.5625 -13.96875 L 6.90625 -14.515625 L 7.15625 -15.125 L 7.515625 -15.625 L 7.734375 -16.234375 L 10.28125 -21.453125 L 10.796875 -22.03125 L 11.578125 -22.21875 L 12.796875 -22.25 L 14.03125 -22.15625 L 14.703125 -22.28125 L 15.3125 -22.21875 L 15.75 -21.921875 L 15.75 -21.390625 L 14.921875 -19.640625 L 14.734375 -19.09375 L 13.265625 -16.296875 L 13.046875 -15.71875 L 11.65625 -12.796875 L 11.421875 -12.1875 L 11.109375 -11.71875 L 8.625 -6.5 L 8.015625 -5.46875 L 7.578125 -4.234375 L 6.65625 -2.640625 L 6.390625 -1.9375 L 6.078125 -1.40625 L 5.859375 -0.859375 L 5.25 -0.3125 Z M 4.203125 0 "/></g></g></g><g fill="#000000" fill-opacity="1"><g transform="translate(45.900709, 43.633478)"><g><path d="M 10.953125 0.28125 L 10.34375 0.1875 L 9.640625 -0.0625 L 9 -0.609375 L 8.71875 -1.078125 L 7.453125 -4.109375 L 7.28125 -4.75 L 6.9375 -5.3125 L 6.390625 -6.390625 L 6.171875 -7.0625 L 5.375 -8.71875 L 5.1875 -9.359375 L 2.328125 -15.78125 L 2.09375 -16.453125 L 1.75 -16.9375 L 1.5 -17.5625 L 1.34375 -18.171875 L 1.015625 -18.65625 L 0 -21.359375 L 0.25 -22 L 0.765625 -22.21875 L 1.96875 -22.21875 L 2.609375 -22.3125 L 4.421875 -22.25 L 5.15625 -21.921875 L 5.703125 -21.390625 L 6.59375 -18.96875 L 7.421875 -17.28125 L 9 -13.140625 L 9.546875 -12.0625 L 9.671875 -11.453125 L 10.46875 -9.734375 L 10.828125 -9.671875 L 11.140625 -10.25 L 11.78125 -12.03125 L 12.09375 -12.609375 L 12.21875 -13.171875 L 12.515625 -13.71875 L 12.703125 -14.390625 L 15.65625 -21.390625 L 16.203125 -21.921875 L 16.90625 -22.34375 L 18.109375 -22.21875 L 18.75 -22.25 L 19.34375 -22.3125 L 19.921875 -22.21875 L 20.59375 -22.15625 L 21.171875 -22.03125 L 21.328125 -21.359375 L 21.109375 -20.5 L 20.5 -19.390625 L 20.34375 -18.78125 L 19.796875 -17.625 L 19.484375 -17.0625 L 16.703125 -10.5 L 16.140625 -9.484375 L 15.921875 -8.78125 L 14.671875 -5.890625 L 14.328125 -5.3125 L 14.125 -4.78125 L 13.8125 -4.109375 L 13.625 -3.46875 L 13.015625 -2.453125 L 12.828125 -1.78125 L 12.40625 -0.890625 L 11.71875 0.03125 Z M 10.953125 0.28125 "/></g></g></g><g fill="#000000" fill-opacity="1"><g transform="translate(67.353401, 43.633478)"><g><path d="M 1.875 -3.8125 L 1.8125 -4.296875 L 1.875 -5.734375 L 1.84375 -6.296875 L 1.90625 -6.78125 L 1.8125 -7.15625 L 2.09375 -7.796875 L 2.515625 -8.34375 L 3.4375 -8.78125 L 3.78125 -9.078125 L 4.234375 -9.234375 L 4.703125 -9.484375 L 5.0625 -9.734375 L 5.53125 -10.03125 L 5.984375 -10.21875 L 7.359375 -11.015625 L 7.484375 -11.265625 L 7.359375 -11.6875 L 6.8125 -11.96875 L 6.421875 -12.09375 L 5.984375 -12.40625 L 4.265625 -13.265625 L 3.75 -13.65625 L 3.34375 -13.8125 L 2.671875 -14.234375 L 2.03125 -14.859375 L 1.875 -15.40625 L 1.8125 -17.34375 L 1.875 -17.890625 L 1.8125 -18.84375 L 2.125 -19.15625 L 2.546875 -19.1875 L 3.4375 -18.75 L 3.890625 -18.59375 L 4.328125 -18.390625 L 5.25 -17.796875 L 5.640625 -17.625 L 6.53125 -17.0625 L 7.734375 -16.609375 L 8.375 -16.140625 L 8.78125 -15.953125 L 10.15625 -15.21875 L 10.59375 -14.921875 L 11.546875 -14.578125 L 12 -14.234375 L 12.40625 -14.09375 L 12.859375 -13.78125 L 13.375 -13.65625 L 13.78125 -13.375 L 14.203125 -12.828125 L 14.484375 -12.1875 L 14.421875 -10.34375 L 14.15625 -9.734375 L 13.78125 -9.359375 L 13.265625 -9 L 11.484375 -8.078125 L 11.109375 -7.796875 L 10.46875 -7.578125 L 9.96875 -7.21875 L 9.296875 -6.875 L 8.78125 -6.71875 L 5.1875 -4.75 L 4.359375 -4.390625 L 3.6875 -3.921875 L 2.515625 -3.4375 L 2.171875 -3.4375 Z M 1.875 -3.8125 "/></g></g></g></svg>